<?xml version="1.0" encoding="UTF-8"?>
<!DOCTYPE svg PUBLIC "-//W3C//DTD SVG 1.1//EN" "http://www.w3.org/Graphics/SVG/1.1/DTD/svg11.dtd">
<svg xmlns="http://www.w3.org/2000/svg" version="1.1" width="64px" height="64px" style="shape-rendering:geometricPrecision; text-rendering:geometricPrecision; image-rendering:optimizeQuality; fill-rule:evenodd; clip-rule:evenodd" xmlns:xlink="http://www.w3.org/1999/xlink">
<g><path style="opacity:1" fill="#ffcd27" d="M 38.5,9.5 C 39.5,8.16667 40.5,8.16667 41.5,9.5C 41.5,10.8333 41.5,12.1667 41.5,13.5C 40.2264,14.1894 40.2264,15.0228 41.5,16C 43.4727,16.4955 45.4727,16.6621 47.5,16.5C 47.5674,17.9587 47.2341,19.2921 46.5,20.5C 45.4138,20.62 44.7472,21.2867 44.5,22.5C 44.8457,23.8492 45.179,25.1825 45.5,26.5C 43.326,26.7497 41.6594,27.7497 40.5,29.5C 39.5,29.5 38.5,29.5 37.5,29.5C 37.7845,27.5853 37.4511,25.9187 36.5,24.5C 36.5792,23.0695 36.2458,21.7362 35.5,20.5C 33.823,18.4602 32.1563,16.4602 30.5,14.5C 28.6284,16.9099 27.295,19.5766 26.5,22.5C 25.3802,25.365 24.0469,28.0316 22.5,30.5C 20.4632,29.1535 18.4632,27.8202 16.5,26.5C 16.5,25.8333 16.5,25.1667 16.5,24.5C 17.1239,24.0831 17.4573,23.4164 17.5,22.5C 17.2528,21.2867 16.5862,20.62 15.5,20.5C 14.6971,19.5768 14.5304,18.5768 15,17.5C 16.7337,16.7511 18.567,16.2511 20.5,16C 21.7736,15.0228 21.7736,14.1894 20.5,13.5C 20.0882,11.0274 21.0882,9.69408 23.5,9.5C 25.0418,10.3007 26.7085,10.634 28.5,10.5C 29.404,9.79105 29.7373,8.79105 29.5,7.5C 32.5,7.16667 33.8333,8.5 33.5,11.5C 35.7812,11.9227 37.4479,11.256 38.5,9.5 Z"/></g>
<g><path style="opacity:0.937" fill="#fff6d5" d="M 23.5,9.5 C 21.0882,9.69408 20.0882,11.0274 20.5,13.5C 17.822,11.2514 18.322,9.58474 22,8.5C 22.7648,8.56993 23.2648,8.90326 23.5,9.5 Z"/></g>
<g><path style="opacity:0.812" fill="#fff1bf" d="M 38.5,9.5 C 37.4479,11.256 35.7812,11.9227 33.5,11.5C 33.8333,8.5 32.5,7.16667 29.5,7.5C 29.7373,8.79105 29.404,9.79105 28.5,10.5C 28.5,9.16667 28.5,7.83333 28.5,6.5C 32.2407,5.59853 34.2407,6.93186 34.5,10.5C 35.9587,10.5674 37.2921,10.2341 38.5,9.5 Z"/></g>
<g><path style="opacity:1" fill="#fff3ca" d="M 41.5,9.5 C 43.7813,10.6344 43.7813,11.9678 41.5,13.5C 41.5,12.1667 41.5,10.8333 41.5,9.5 Z"/></g>
<g><path style="opacity:0.749" fill="#fff2c9" d="M 41.5,13.5 C 43.2488,14.9851 45.2488,15.9851 47.5,16.5C 45.4727,16.6621 43.4727,16.4955 41.5,16C 40.2264,15.0228 40.2264,14.1894 41.5,13.5 Z"/></g>
<g><path style="opacity:0.282" fill="#fff7dc" d="M 20.5,13.5 C 21.7736,14.1894 21.7736,15.0228 20.5,16C 18.567,16.2511 16.7337,16.7511 15,17.5C 14.5304,18.5768 14.6971,19.5768 15.5,20.5C 13.6558,19.7961 13.1558,18.4628 14,16.5C 16.5332,16.0504 18.6998,15.0504 20.5,13.5 Z"/></g>
<g><path style="opacity:0.686" fill="#fffaea" d="M 47.5,16.5 C 50.4528,18.5635 50.1195,19.8969 46.5,20.5C 47.2341,19.2921 47.5674,17.9587 47.5,16.5 Z"/></g>
<g><path style="opacity:1" fill="#ffe99b" d="M 15.5,20.5 C 16.5862,20.62 17.2528,21.2867 17.5,22.5C 17.4573,23.4164 17.1239,24.0831 16.5,24.5C 16.5674,23.0413 16.2341,21.7079 15.5,20.5 Z"/></g>
<g><path style="opacity:0.686" fill="#ffe9d2" d="M 16.5,24.5 C 16.5,25.1667 16.5,25.8333 16.5,26.5C 13.9333,26.1455 11.4333,25.4788 9,24.5C 8.5,24.8333 8,25.1667 7.5,25.5C 8.97718,29.9354 10.6438,34.2688 12.5,38.5C 8.58909,33.9355 6.75576,28.6021 7,22.5C 9.9973,23.8664 13.164,24.533 16.5,24.5 Z"/></g>
<g><path style="opacity:1" fill="#ffe59a" d="M 46.5,20.5 C 45.6018,23.4652 46.9351,24.7985 50.5,24.5C 49.2196,25.9313 47.5529,26.5979 45.5,26.5C 45.179,25.1825 44.8457,23.8492 44.5,22.5C 44.7472,21.2867 45.4138,20.62 46.5,20.5 Z"/></g>
<g><path style="opacity:1" fill="#fee7d5" d="M 51.5,35.5 C 52.0906,32.0601 53.0906,28.7268 54.5,25.5C 53.3112,24.5713 51.9778,24.238 50.5,24.5C 51.9972,23.6942 53.6639,23.0276 55.5,22.5C 55.8333,22.8333 56.1667,23.1667 56.5,23.5C 55.1981,27.7628 53.5314,31.7628 51.5,35.5 Z"/></g>
<g><path style="opacity:1" fill="#f78f3a" d="M 36.5,24.5 C 36.6646,27.5184 36.498,30.5184 36,33.5C 35.7679,32.2625 35.2679,31.2625 34.5,30.5C 34.2163,27.1476 33.0496,24.1476 31,21.5C 30.5357,22.0944 30.369,22.7611 30.5,23.5C 30.6716,24.4916 30.3382,25.1583 29.5,25.5C 28.0083,29.2822 26.8417,33.2822 26,37.5C 25.2917,36.6195 24.4584,35.9528 23.5,35.5C 22.8333,35.5 22.5,35.1667 22.5,34.5C 22.0269,33.0937 21.0269,32.427 19.5,32.5C 17.847,32.3404 16.5137,31.6737 15.5,30.5C 14.6136,29.2241 13.6136,29.2241 12.5,30.5C 12.6236,31.1067 12.9569,31.44 13.5,31.5C 14.3382,31.8417 14.6716,32.5084 14.5,33.5C 14.2291,35.3797 14.8958,36.713 16.5,37.5C 16.8333,39.8333 18.1667,41.1667 20.5,41.5C 21.6602,43.2027 20.9935,43.8693 18.5,43.5C 17.5637,42.0256 16.2303,41.0256 14.5,40.5C 13.5084,40.6716 12.8417,40.3382 12.5,39.5C 12.5,39.1667 12.5,38.8333 12.5,38.5C 10.6438,34.2688 8.97718,29.9354 7.5,25.5C 8,25.1667 8.5,24.8333 9,24.5C 11.4333,25.4788 13.9333,26.1455 16.5,26.5C 18.4632,27.8202 20.4632,29.1535 22.5,30.5C 23.1217,31.6266 23.955,32.6266 25,33.5C 25.4196,29.8086 25.9196,26.1419 26.5,22.5C 27.295,19.5766 28.6284,16.9099 30.5,14.5C 32.1563,16.4602 33.823,18.4602 35.5,20.5C 36.2458,21.7362 36.5792,23.0695 36.5,24.5 Z"/></g>
<g><path style="opacity:1" fill="#f78e38" d="M 50.5,24.5 C 51.9778,24.238 53.3112,24.5713 54.5,25.5C 53.0906,28.7268 52.0906,32.0601 51.5,35.5C 51.6716,36.4916 51.3382,37.1583 50.5,37.5C 48.5,38.8333 46.8333,40.5 45.5,42.5C 45.1583,43.3382 44.4916,43.6716 43.5,43.5C 42.209,43.7373 41.209,43.404 40.5,42.5C 45.3443,40.4987 48.011,36.8321 48.5,31.5C 49.8847,30.6977 49.718,30.0311 48,29.5C 45.7039,29.8588 43.8705,30.8588 42.5,32.5C 40.2459,33.4151 38.2459,34.7484 36.5,36.5C 37.063,33.7052 38.3963,31.3718 40.5,29.5C 41.6594,27.7497 43.326,26.7497 45.5,26.5C 47.5529,26.5979 49.2196,25.9313 50.5,24.5 Z"/></g>
<g><path style="opacity:1" fill="#fcc17d" d="M 26.5,22.5 C 25.9196,26.1419 25.4196,29.8086 25,33.5C 23.955,32.6266 23.1217,31.6266 22.5,30.5C 24.0469,28.0316 25.3802,25.365 26.5,22.5 Z"/></g>
<g><path style="opacity:0.624" fill="#fce3ce" d="M 15.5,30.5 C 14.5084,30.3284 13.8417,30.6618 13.5,31.5C 12.9569,31.44 12.6236,31.1067 12.5,30.5C 13.6136,29.2241 14.6136,29.2241 15.5,30.5 Z"/></g>
<g><path style="opacity:0.383" fill="#fef6f0" d="M 34.5,30.5 C 34.3354,33.5184 34.502,36.5184 35,39.5C 35.3826,38.944 35.8826,38.6107 36.5,38.5C 35.242,40.6869 34.242,43.0202 33.5,45.5C 32.5028,45.5299 31.8361,45.0299 31.5,44C 34.4369,36.8626 34.1036,30.0292 30.5,23.5C 30.369,22.7611 30.5357,22.0944 31,21.5C 33.0496,24.1476 34.2163,27.1476 34.5,30.5 Z"/></g>
<g><path style="opacity:0.376" fill="#feecdd" d="M 48.5,31.5 C 48.1667,30.1667 47.8333,30.1667 47.5,31.5C 45.7839,31.6287 44.1172,31.962 42.5,32.5C 43.8705,30.8588 45.7039,29.8588 48,29.5C 49.718,30.0311 49.8847,30.6977 48.5,31.5 Z"/></g>
<g><path style="opacity:0.812" fill="#fdf2e9" d="M 19.5,32.5 C 21.0269,32.427 22.0269,33.0937 22.5,34.5C 20.9731,34.573 19.9731,33.9063 19.5,32.5 Z"/></g>
<g><path style="opacity:1" fill="#faaf6b" d="M 36.5,24.5 C 37.4511,25.9187 37.7845,27.5853 37.5,29.5C 38.5,29.5 39.5,29.5 40.5,29.5C 38.3963,31.3718 37.063,33.7052 36.5,36.5C 36.5,37.1667 36.5,37.8333 36.5,38.5C 35.8826,38.6107 35.3826,38.944 35,39.5C 34.502,36.5184 34.3354,33.5184 34.5,30.5C 35.2679,31.2625 35.7679,32.2625 36,33.5C 36.498,30.5184 36.6646,27.5184 36.5,24.5 Z"/></g>
<g><path style="opacity:0.063" fill="#fef5ef" d="M 42.5,32.5 C 40.8333,34.8333 38.8333,36.8333 36.5,38.5C 36.5,37.8333 36.5,37.1667 36.5,36.5C 38.2459,34.7484 40.2459,33.4151 42.5,32.5 Z"/></g>
<g><path style="opacity:0.749" fill="#feede0" d="M 14.5,33.5 C 15.6737,34.5137 16.3404,35.847 16.5,37.5C 14.8958,36.713 14.2291,35.3797 14.5,33.5 Z"/></g>
<g><path style="opacity:1" fill="#fee2cc" d="M 16.5,37.5 C 18.1667,38.5 19.5,39.8333 20.5,41.5C 18.1667,41.1667 16.8333,39.8333 16.5,37.5 Z"/></g>
<g><path style="opacity:0.937" fill="#fee5d2" d="M 47.5,31.5 C 47.8333,31.5 48.1667,31.5 48.5,31.5C 48.011,36.8321 45.3443,40.4987 40.5,42.5C 44.0441,39.6189 46.3774,35.9522 47.5,31.5 Z"/></g>
<g><path style="opacity:0.686" fill="#ffd0ab" d="M 50.5,37.5 C 50.5,38.1667 50.5,38.8333 50.5,39.5C 49.5,39.8333 48.8333,40.5 48.5,41.5C 47.609,42.1098 46.609,42.4431 45.5,42.5C 46.8333,40.5 48.5,38.8333 50.5,37.5 Z"/></g>
<g><path style="opacity:0.923" fill="#f4811f" d="M 12.5,39.5 C 12.8417,40.3382 13.5084,40.6716 14.5,40.5C 14.5,40.8333 14.5,41.1667 14.5,41.5C 12.513,42.1642 10.8463,43.3308 9.5,45C 14.984,48.8977 20.6507,49.3977 26.5,46.5C 27.1667,46.5 27.8333,46.5 28.5,46.5C 30.1667,46.5 31.8333,46.5 33.5,46.5C 34.1667,46.5 34.8333,46.5 35.5,46.5C 41.6074,49.3265 47.6074,48.8265 53.5,45C 51.6536,43.9702 49.9869,42.8036 48.5,41.5C 48.8333,40.5 49.5,39.8333 50.5,39.5C 54.0432,41.1018 57.7098,42.4351 61.5,43.5C 57.2879,48.2728 51.9546,50.9394 45.5,51.5C 40.5275,50.6759 35.6942,49.3426 31,47.5C 24.0455,50.8304 16.8788,51.6637 9.5,50C 6.0571,48.3821 3.0571,46.2154 0.5,43.5C 4.58587,42.3603 8.58587,41.0269 12.5,39.5 Z M 14.5,41.5 C 15.5137,42.6737 16.847,43.3404 18.5,43.5C 20.7916,45.2671 23.4582,46.2671 26.5,46.5C 20.6507,49.3977 14.984,48.8977 9.5,45C 10.8463,43.3308 12.513,42.1642 14.5,41.5 Z M 48.5,41.5 C 49.9869,42.8036 51.6536,43.9702 53.5,45C 47.6074,48.8265 41.6074,49.3265 35.5,46.5C 38.5418,46.2671 41.2084,45.2671 43.5,43.5C 44.4916,43.6716 45.1583,43.3382 45.5,42.5C 46.609,42.4431 47.609,42.1098 48.5,41.5 Z"/></g>
<g><path style="opacity:0.312" fill="#feefe2" d="M 14.5,40.5 C 16.2303,41.0256 17.5637,42.0256 18.5,43.5C 16.847,43.3404 15.5137,42.6737 14.5,41.5C 14.5,41.1667 14.5,40.8333 14.5,40.5 Z"/></g>
<g><path style="opacity:0.063" fill="#ffefe2" d="M 20.5,41.5 C 23.1401,42.8201 25.8068,44.1534 28.5,45.5C 28.5,45.8333 28.5,46.1667 28.5,46.5C 27.8333,46.5 27.1667,46.5 26.5,46.5C 23.4582,46.2671 20.7916,45.2671 18.5,43.5C 20.9935,43.8693 21.6602,43.2027 20.5,41.5 Z"/></g>
<g><path style="opacity:0.338" fill="#ffecde" d="M 29.5,25.5 C 28.008,31.7524 28.3413,37.9191 30.5,44C 30.1639,45.0299 29.4972,45.5299 28.5,45.5C 27.3449,41.8564 25.6782,38.5231 23.5,35.5C 24.4584,35.9528 25.2917,36.6195 26,37.5C 26.8417,33.2822 28.0083,29.2822 29.5,25.5 Z"/></g>
<g><path style="opacity:0.749" fill="#ffebdb" d="M 40.5,42.5 C 41.209,43.404 42.209,43.7373 43.5,43.5C 41.2084,45.2671 38.5418,46.2671 35.5,46.5C 34.8333,46.5 34.1667,46.5 33.5,46.5C 33.5,46.1667 33.5,45.8333 33.5,45.5C 35.7128,44.2271 38.0462,43.2271 40.5,42.5 Z"/></g>
</svg>
